<svg width="105" height="101" viewBox="0 0 105 101" fill="none" xmlns="http://www.w3.org/2000/svg">
<path d="M52.5 15.2322L60.7653 3.09456C64.6998 -2.7042 73.7293 0.252031 73.5594 7.27308L73.1632 21.969L86.948 17.0514C93.515 14.6921 99.1195 22.4238 94.8453 27.9667L85.929 39.6211L99.9687 43.7712C106.677 45.7609 106.677 55.2834 99.9687 57.2732L85.9007 61.4233L94.817 73.0776C99.0912 78.649 93.4867 86.3522 86.9197 83.9929L73.1632 79.0469L73.5594 93.7428C73.7576 100.764 64.7281 103.692 60.7653 97.9213L52.5 85.7837L44.2347 97.9213C40.3002 103.72 31.2707 100.764 31.4406 93.7428L31.8368 79.0469L18.052 83.9645C11.485 86.3238 5.88051 78.5921 10.1547 73.0492L19.071 61.3948L5.03134 57.2447C-1.67711 55.255 -1.67711 45.7325 5.03134 43.7427L19.071 39.5926L10.1547 27.9383C5.88051 22.3669 11.485 14.6637 18.052 17.023L31.8368 21.9405L31.4406 7.24465C31.2424 0.223606 40.2719 -2.7042 44.2347 3.06613L52.5 15.2322Z" fill="#34C759"/>
</svg>
